<?xml version="1.0" encoding="utf-8"?>
<!-- Generator: Adobe Illustrator 18.0.0, SVG Export Plug-In . SVG Version: 6.00 Build 0)  -->
<!DOCTYPE svg PUBLIC "-//W3C//DTD SVG 1.1//EN" "http://www.w3.org/Graphics/SVG/1.1/DTD/svg11.dtd">
<svg version="1.1" id="Layer_1" xmlns="http://www.w3.org/2000/svg" xmlns:xlink="http://www.w3.org/1999/xlink" x="0px" y="0px"
	 width="1400px" height="1400px" viewBox="0 0 1400 1400" enable-background="new 0 0 1400 1400" xml:space="preserve">
<rect fill="#A9D6FF" width="1400" height="1400"/>
<g>
	<g>
		<g>
			<polygon fill="#285199" points="848.1,979.6 842.6,982.8 842.5,999.4 848.1,996.2 			"/>
			<polygon fill="#285199" points="778,982.8 772.4,979.6 772.4,996.2 778,999.4 			"/>
			<path fill="#285199" d="M794.2,1010.7c0-0.1,0-0.1,0-0.2c0-0.1,0-0.2,0-0.2c0-0.1,0-0.1,0-0.2c0-0.1,0-0.2,0.1-0.2
				c0-0.1,0-0.1,0.1-0.2c0-0.1,0-0.2,0.1-0.2c0-0.1,0.1-0.1,0.1-0.2c0-0.1,0.1-0.2,0.1-0.2c0-0.1,0.1-0.1,0.1-0.2
				c0-0.1,0.1-0.2,0.1-0.2c0-0.1,0.1-0.1,0.1-0.2c0.1-0.1,0.1-0.2,0.2-0.3c0-0.1,0.1-0.1,0.1-0.2c0.1-0.1,0.1-0.2,0.2-0.3
				c0,0,0.1-0.1,0.1-0.1c0.1-0.2,0.3-0.3,0.4-0.5c0,0,0.1-0.1,0.1-0.1c0.1-0.1,0.2-0.2,0.4-0.4c0.1-0.1,0.1-0.1,0.2-0.2
				c0.1-0.1,0.2-0.1,0.2-0.2c0.1-0.1,0.1-0.1,0.2-0.2c0.1-0.1,0.2-0.1,0.3-0.2c0.1-0.1,0.2-0.1,0.2-0.2c0.1-0.1,0.2-0.1,0.3-0.2
				c0.1-0.1,0.2-0.1,0.3-0.2c0.1-0.1,0.2-0.1,0.3-0.2c0.1-0.1,0.2-0.2,0.4-0.2c0.2-0.1,0.5-0.3,0.7-0.4c0.1,0,0.1-0.1,0.2-0.1
				c0.2-0.1,0.4-0.2,0.6-0.3c0.1,0,0.1-0.1,0.2-0.1c0.3-0.1,0.5-0.2,0.8-0.3c0,0,0.1,0,0.1-0.1c0.2-0.1,0.5-0.2,0.7-0.2
				c0.1,0,0.2-0.1,0.3-0.1c0.1,0,0.3-0.1,0.4-0.1c0.1,0,0.2-0.1,0.3-0.1c0.1,0,0.3-0.1,0.4-0.1c0.1,0,0.2-0.1,0.3-0.1
				c0.1,0,0.3-0.1,0.4-0.1c0.1,0,0.2-0.1,0.3-0.1c0.1,0,0.3-0.1,0.4-0.1c0.1,0,0.2,0,0.3-0.1c0.3-0.1,0.6-0.1,0.9-0.1
				c0,0,0.1,0,0.1,0c0.3,0,0.5-0.1,0.8-0.1c0.1,0,0.2,0,0.3,0c0.2,0,0.3,0,0.5,0c0.1,0,0.2,0,0.3,0c0.2,0,0.4,0,0.5,0
				c0.1,0,0.2,0,0.3,0c0.2,0,0.3,0,0.5,0c0.1,0,0.2,0,0.3,0c0.2,0,0.3,0,0.5,0c0.1,0,0.2,0,0.3,0c0.5,0,1,0,1.5,0.1c0,0,0,0,0,0
				c0.5,0,1,0.1,1.6,0.2c0,0,0.1,0,0.1,0c0.2,0,0.4,0.1,0.7,0.1c0.1,0,0.2,0,0.3,0.1c0.2,0,0.3,0.1,0.5,0.1c0.1,0,0.2,0,0.3,0.1
				c0.2,0,0.4,0.1,0.5,0.1c0.1,0,0.2,0.1,0.3,0.1c0.2,0,0.3,0.1,0.5,0.1c0.1,0,0.2,0.1,0.3,0.1c0.3,0.1,0.5,0.2,0.8,0.2
				c0,0,0.1,0,0.1,0c0.3,0.1,0.6,0.2,0.9,0.3c0.1,0,0.1,0,0.2,0.1c0.4,0.1,0.7,0.3,1.1,0.5c0,0,0.1,0,0.1,0.1
				c0.4,0.2,0.7,0.4,1.1,0.6c3.2,1.8,4.8,4.3,4.8,6.7l0-16.6c0-2.4-1.6-4.8-4.8-6.7c-0.3-0.2-0.7-0.4-1.1-0.6c0,0-0.1,0-0.1-0.1
				c-0.3-0.2-0.7-0.3-1.1-0.5c0,0-0.1,0-0.1,0c0,0-0.1,0-0.1,0c-0.3-0.1-0.6-0.2-0.9-0.3c0,0-0.1,0-0.1,0c-0.3-0.1-0.5-0.2-0.8-0.2
				c0,0-0.1,0-0.1,0c0,0-0.1,0-0.1,0c-0.2,0-0.3-0.1-0.5-0.1c-0.1,0-0.2-0.1-0.3-0.1c-0.2,0-0.4-0.1-0.5-0.1c-0.1,0-0.1,0-0.2,0
				c0,0,0,0-0.1,0c-0.2,0-0.3-0.1-0.5-0.1c-0.1,0-0.2,0-0.3-0.1c-0.2,0-0.4-0.1-0.7-0.1c0,0-0.1,0-0.1,0c0,0,0,0,0,0
				c-0.5-0.1-1-0.1-1.6-0.2c0,0,0,0,0,0c0,0,0,0,0,0c-0.5,0-1-0.1-1.5-0.1c0,0,0,0,0,0c-0.1,0-0.2,0-0.3,0c-0.2,0-0.3,0-0.5,0
				c-0.1,0-0.2,0-0.3,0c-0.2,0-0.3,0-0.5,0c0,0-0.1,0-0.1,0c-0.1,0-0.1,0-0.2,0c-0.2,0-0.4,0-0.5,0c-0.1,0-0.2,0-0.3,0
				c-0.2,0-0.3,0-0.5,0c-0.1,0-0.1,0-0.2,0c0,0-0.1,0-0.1,0c-0.3,0-0.5,0.1-0.8,0.1c0,0-0.1,0-0.1,0c-0.3,0-0.6,0.1-0.9,0.1
				c0,0-0.1,0-0.1,0c-0.1,0-0.2,0-0.2,0c-0.1,0-0.3,0.1-0.4,0.1c-0.1,0-0.2,0-0.3,0.1c-0.1,0-0.3,0.1-0.4,0.1
				c-0.1,0-0.2,0.1-0.3,0.1c-0.1,0-0.3,0.1-0.4,0.1c-0.1,0-0.2,0.1-0.3,0.1c-0.1,0-0.3,0.1-0.4,0.1c-0.1,0-0.1,0-0.2,0.1
				c0,0-0.1,0-0.1,0c-0.1,0-0.3,0.1-0.4,0.1l0-13.6l0-4.6l0,16.6l0,1.6c-0.1,0-0.2,0.1-0.3,0.1c0,0-0.1,0-0.1,0.1
				c-0.3,0.1-0.5,0.2-0.8,0.3c-0.1,0-0.1,0.1-0.2,0.1c-0.2,0.1-0.4,0.2-0.6,0.3c-0.1,0-0.1,0.1-0.2,0.1c-0.3,0.1-0.5,0.3-0.7,0.4
				c-0.1,0-0.1,0.1-0.2,0.1c-0.1,0-0.1,0.1-0.2,0.1c-0.1,0.1-0.2,0.1-0.3,0.2c-0.1,0.1-0.2,0.1-0.3,0.2c-0.1,0.1-0.2,0.1-0.3,0.2
				c-0.1,0.1-0.2,0.1-0.2,0.2c-0.1,0.1-0.2,0.1-0.3,0.2c-0.1,0.1-0.1,0.1-0.2,0.2c-0.1,0.1-0.2,0.1-0.2,0.2c0,0-0.1,0.1-0.1,0.1
				c0,0-0.1,0.1-0.1,0.1c-0.1,0.1-0.2,0.2-0.4,0.4c0,0-0.1,0.1-0.1,0.1c-0.1,0.2-0.3,0.3-0.4,0.5c0,0,0,0,0,0c0,0-0.1,0.1-0.1,0.1
				c-0.1,0.1-0.2,0.2-0.2,0.3c0,0.1-0.1,0.1-0.1,0.2c-0.1,0.1-0.1,0.2-0.2,0.3c0,0,0,0.1,0,0.1c0,0,0,0.1-0.1,0.1
				c0,0.1-0.1,0.2-0.1,0.2c0,0.1-0.1,0.1-0.1,0.2c0,0.1-0.1,0.2-0.1,0.2c0,0,0,0.1,0,0.1c0,0,0,0.1,0,0.1c0,0.1-0.1,0.2-0.1,0.2
				c0,0.1,0,0.1-0.1,0.2c0,0.1,0,0.2-0.1,0.2c0,0,0,0.1,0,0.1c0,0,0,0.1,0,0.1c0,0.1,0,0.2,0,0.2c0,0.1,0,0.1,0,0.2
				c0,0.1,0,0.2,0,0.2c0,0,0,0.1,0,0.1c0,0,0,0.1,0,0.1l0,16.6c0-0.1,0-0.2,0-0.3C794.2,1010.9,794.2,1010.8,794.2,1010.7z"/>
			<path fill="#285199" d="M847.7,999.5c-0.1,0.3-0.2,0.6-0.3,0.8c0,0,0,0.1-0.1,0.1c-0.1,0.3-0.3,0.5-0.4,0.8
				c0,0.1-0.1,0.1-0.1,0.2c-0.1,0.3-0.3,0.5-0.5,0.8c0,0,0,0,0,0c-0.2,0.3-0.3,0.5-0.5,0.8c0,0.1-0.1,0.1-0.1,0.2
				c-0.2,0.3-0.4,0.5-0.6,0.8c0,0.1-0.1,0.1-0.1,0.2c-0.2,0.2-0.3,0.4-0.5,0.6c-0.1,0.1-0.1,0.2-0.2,0.2c-0.2,0.2-0.4,0.4-0.6,0.6
				c-0.1,0.1-0.1,0.1-0.2,0.2c-0.3,0.3-0.5,0.5-0.8,0.8l0,6.5l-6,3.5l-5.6-3.2c-0.6,0.2-1.2,0.4-1.8,0.6c-0.2,0.1-0.4,0.1-0.6,0.2
				c-0.3,0.1-0.7,0.2-1,0.3c-0.2,0.1-0.4,0.1-0.6,0.2c-0.3,0.1-0.7,0.2-1,0.3c-0.2,0.1-0.4,0.1-0.6,0.2c-0.4,0.1-0.8,0.2-1.2,0.3
				c-0.2,0-0.3,0.1-0.5,0.1c-0.6,0.1-1.1,0.2-1.7,0.3c-0.3,0.1-0.7,0.1-1,0.2c-0.2,0-0.3,0.1-0.5,0.1c-0.5,0.1-1.1,0.2-1.6,0.2
				l0,4.6h-16.5l0-4.6c-0.4-0.1-0.8-0.1-1.2-0.2c-0.4-0.1-0.8-0.1-1.1-0.2c-0.2,0-0.4-0.1-0.6-0.1c-0.4-0.1-0.9-0.2-1.3-0.3
				c-0.1,0-0.3-0.1-0.4-0.1c-0.6-0.1-1.2-0.3-1.8-0.4c-0.2,0-0.3-0.1-0.5-0.1c-0.4-0.1-0.9-0.2-1.3-0.4c-0.2-0.1-0.4-0.1-0.6-0.2
				c-0.4-0.1-0.8-0.2-1.2-0.4c-0.2-0.1-0.4-0.1-0.5-0.2c-0.6-0.2-1.1-0.4-1.7-0.6l-5.6,3.2l-6.2-3.6l0-6.5c-1.8-1.7-3.3-3.4-4.3-5.3
				c-0.3-0.6-0.6-1.2-0.9-1.8l0,0l-7.9,0l-0.1-9.6l0,16.6l0.1,9.6l7.5,0l0,10.4l11.7,6.8l5.6-3.2c0.5,0.2,1.1,0.4,1.7,0.6
				c0.2,0.1,0.4,0.1,0.5,0.2c0.4,0.1,0.8,0.2,1.2,0.4c0.1,0,0.2,0.1,0.3,0.1c0.1,0,0.2,0.1,0.3,0.1c0.4,0.1,0.9,0.2,1.3,0.4
				c0.2,0,0.3,0.1,0.5,0.1c0.6,0.1,1.2,0.3,1.8,0.4c0,0,0,0,0.1,0c0.1,0,0.2,0,0.4,0.1c0.4,0.1,0.9,0.2,1.3,0.3
				c0.2,0,0.4,0.1,0.6,0.1c0.4,0.1,0.8,0.1,1.1,0.2c0.1,0,0.2,0,0.3,0c0.3,0,0.6,0.1,0.9,0.1l0,4.6l16.6,0l0-4.6
				c0.5-0.1,1-0.1,1.5-0.2c0.2,0,0.3-0.1,0.5-0.1c0.3-0.1,0.7-0.1,1-0.2c0,0,0,0,0,0c0.6-0.1,1.1-0.2,1.7-0.3c0.2,0,0.3-0.1,0.5-0.1
				c0.4-0.1,0.8-0.2,1.2-0.3c0.2-0.1,0.4-0.1,0.6-0.2c0.4-0.1,0.7-0.2,1-0.3c0.2-0.1,0.4-0.1,0.6-0.2c0.3-0.1,0.7-0.2,1-0.3
				c0.1,0,0.2-0.1,0.4-0.1c0.1,0,0.1-0.1,0.2-0.1c0.6-0.2,1.2-0.4,1.8-0.6l5.6,3.2l11.7-6.8l0-10.4l7.3,0l0-16.6L847.7,999.5z"/>
		</g>
		<path fill="#4367C7" d="M847.7,999.5l7.9,0l-0.1-9.6l-7.9,0c-1-2.5-2.7-4.9-5.1-7.1l5.6-3.2l-11.7-6.8l-5.6,3.2
			c-3.8-1.4-8-2.4-12.3-2.9l0-4.6h-16.6l0,4.6c-4.3,0.5-8.4,1.5-12.3,2.9l-5.6-3.2l-11.7,6.8l5.6,3.2c-2.4,2.2-4.1,4.6-5,7.1l-7.9,0
			l0.1,9.6l7.9,0c1,2.5,2.7,4.9,5.1,7.1l-5.6,3.2l11.7,6.8l5.6-3.2c3.8,1.4,8,2.4,12.3,2.9l0,4.6h16.6l0-4.6
			c4.3-0.5,8.4-1.5,12.3-2.9l5.6,3.2l11.7-6.8l-5.6-3.2C845.1,1004.4,846.8,1002,847.7,999.5z M821.8,1001.4
			c-6.3,3.7-16.5,3.7-22.9,0c-6.3-3.7-6.4-9.6-0.1-13.2c6.3-3.7,16.5-3.7,22.9,0C828.1,991.8,828.1,997.7,821.8,1001.4z"/>
	</g>
	<g>
		<g>
			<g enable-background="new    ">
				<path fill="#D91067" d="M582.7,865.2c-22.7,13.2-59.7,13.2-82.5,0c-11.5-6.6-17.3-15.4-17.2-24.1l0,13.1
					c0,8.7,5.7,17.4,17.2,24.1c22.9,13.2,59.8,13.2,82.5,0c11.3-6.6,16.9-15.1,17-23.7l0-13.1C599.6,850,594,858.6,582.7,865.2z"/>
				<g>
					<path fill="#F965A8" d="M582.4,817.4c22.9,13.2,23,34.6,0.3,47.8c-22.7,13.2-59.7,13.2-82.5,0c-22.9-13.2-23-34.6-0.3-47.8
						C522.6,804.2,559.5,804.2,582.4,817.4z"/>
				</g>
			</g>
		</g>
		<g>
			<g enable-background="new    ">
				<g>
					<polygon fill="#FFFFFF" points="559.2,817.4 564,851.4 505.2,848.7 					"/>
				</g>
				<g>
					<polygon fill="#D8D8D8" points="564,851.4 564,854.6 505.2,852 505.2,848.7 					"/>
				</g>
			</g>
		</g>
	</g>
	<g>
		<path fill="#2D2D2D" d="M327.5,1041.4v12c0,0,2.2,4.1,14,5.4c11.8,1.3,16.6-4.1,16.6-4.1s3.7,0,13.1-2.6
			c9.5-2.6,21.3-11.8,21.3-11.8l1.5-18.1c0,0-21.5,3.4-30.6,4.5C354.4,1027.9,329,1032.8,327.5,1041.4z"/>
		<path fill="#2D2D2D" d="M387.3,1073.3v13.8c0,0-0.4,4.1,6.7,6.9c7.1,2.8,18.1-0.2,22.2-2.6l1.9-3c0,0,2.4,1.1,8.6,0.4
			s18.5-6.2,25.4-12.9s8.6-11.6,4.3-14.6c-4.3-3-22.2-0.6-30.1,3C418.3,1067.9,387.3,1073.3,387.3,1073.3z"/>
		<path fill="#DBDBDB" d="M915,892.1c0,0-0.6,5.7-8.1,11.1c-7.6,5.4-11.3,9.4-11.7,15.1c-0.3,5.7,8.5,7.9,14.8,7
			c6.3-1,13.9-7.3,18.6-10.1c4.7-2.8,6.3-9.4,10.1-9.8s8.3-7.1,3.7-18.2c0,0-7.2-10.4-15.7-6S915,892.1,915,892.1z"/>
		<path fill="#DBDBDB" d="M961.6,924.2c0,0,0.9,10-2.3,12.9s-2.1,15.7,2.4,22c4.5,6.3,10.5,6.3,15.1,5.4s9.2-9.2,10.9-17.2
			c1.7-8,0.3-15.5,0-19.5c-0.3-4,0-13.7,0-13.7S962.3,914,961.6,924.2z"/>
		<path fill="#343255" d="M988.9,743.4c0.7-18.2,13.3-51.9,15-80.8l-81.4-64.6l-18.8,54.3c0,0-2.8,35.9-3.5,66.7
			c-0.7,30.8,3.5,49.6,9.8,74.8c5.3,21,5.6,80.1,5.6,97.8h0c0,0,3.8,3.8,9.5,4c1.3-0.1,2.7-0.2,4.1-0.4c0,0,0,0,0,0l0,0
			c5.3-0.8,11.1-2.6,15.8-7c-2.1-6.3,1.4-46.1,3.5-71.3c2.1-25.2,0-72,0-72s4.9,47.5,9.1,77.6c4.2,30.1,0,101.4,0,101.4
			s16.1,7,32.9-2.8c0,0,5.6-60.1,3.5-86.7C991.7,807.7,988.2,761.5,988.9,743.4z"/>
		<path fill="#443127" d="M926.9,481.8c0,0-14-14-14.4-41.6c-0.4-27.6,7.8-39.7,20.6-49.8c11.3-8.9,32.2-7.5,46.5,2.5
			c3.6,2.5,6.4,6.1,8,10.2c3.7,9.5,9.8,30,3.5,50.7c-8.6,28.4-30.7,37.7-41.6,40.5L926.9,481.8z"/>
		<path fill="#F965A8" d="M938.7,473.7c0,0-12.2-6.5-20.4,0c-8.2,6.5-11.2,24.6-13.7,36.9c-2.5,12.3,0,37.3,0,37.3l-4.5,101.5
			c0,0,18.5,15.3,35.7,21.2s56.4-5.2,68.1-8.1c0,0-1-42.4-29.6-77.3c-9.5-11.7,28.5-43.2,21.6-81.5c0,0-10.3-14.2-32.9-27.5
			C940.5,462.9,938.7,473.7,938.7,473.7z"/>
		<path fill="#F965A8" d="M927.2,470.8c0,0-11.2-3.5-16.7-1.2c-5.5,2.3-11.8,15-14.2,24.2c-2.4,9.2-4.4,64.6-4,67
			c0.4,2.4-2,26.7-2,26.7s3.6,7.2,15.1,10.6s8.7-56,10.1-61.9S927.2,470.8,927.2,470.8z"/>
		<g>
			<g enable-background="new    ">
				<g>
					<polygon fill="#5A85E5" points="912.5,596.9 872,620.4 757.4,554.3 798,530.8 					"/>
				</g>
				<g>
					<polygon fill="#3258AD" points="912.5,596.9 912.1,730.7 871.6,754.3 872,620.4 					"/>
				</g>
				<g>
					<polygon fill="#4367C7" points="872,620.4 871.6,754.3 757.1,688.2 757.4,554.3 					"/>
				</g>
			</g>
			<g>
				<path fill="#FFFFFF" d="M803.4,561.7c-5.6,0-9.3-0.9-11.8-2.2c-2.9-1.5-4.8-4.5-4.8-7.8v-55.4c0-2.7,0.7-5.3,2.2-7.5
					c0.9-1.3,2.2-2.7,3.9-3.7l17.4-10.3c0,0,6.1-3.9,16.8,1.9l38.7,22.3c0,0,7.4,4.4,13.5,14.9c4.5,7.9,6.8,16.9,6.8,25.9v49.6
					c0,2.9-1.4,5.6-3.8,7.2c-2.7,1.8-6.9,3.7-12.6,3.7c0,0-8.8,0.2-14-4.4c-1.8-1.6-2.8-4-2.8-6.4v-50.2c0-3.9-1.2-7.8-3.7-10.8
					c-0.8-0.9-1.7-1.9-2.8-2.7l-27.4-15.5v41.1c0,3.1-1.6,5.9-4.2,7.5C812.5,560.5,808.8,561.7,803.4,561.7z"/>
				<path fill="#E8E8E8" d="M791.6,559.6c2.5,1.2,6.2,2.2,11.8,2.2c5.4,0,9.1-1.3,11.5-2.7c2.6-1.6,4.2-4.4,4.2-7.5v-41.1
					c-6.8-2.7-10.8-0.5-13.2,2.3c-1.9,2.2-2.8,5-2.8,7.9v31.4c0,2.6-1.7,5-4.1,5.7c-1.6,0.5-2.8,0.5-2.8,0.5
					c-7.2-1.2-9.4-6.3-9.4-6.3C786.8,555.1,788.7,558.1,791.6,559.6z"/>
				<path fill="#E8E8E8" d="M870.1,511.2c2.4,5.2,4.8,12.7,5.2,22.2l-1,51.3c0,2.5-0.8,5-2.3,7c-1.5,2-4,4-8,4.4
					c-3.9,0.4-7.8-2.4-10.9-5.6c0.2,2.1,1.2,4,2.7,5.5c5.2,4.7,14,4.4,14,4.4c5.8,0,9.9-1.8,12.6-3.7c2.4-1.6,3.8-4.3,3.8-7.2V540
					c0-9.1-2.3-18.1-6.8-25.9c-6.1-10.6-13.5-14.9-13.5-14.9l-38.7-22.3c0,0,21.5,14.5,32.7,22.3
					C864.3,502.1,867.8,506.3,870.1,511.2z"/>
			</g>
			<g>
				<path fill="#FFFFFF" d="M814.6,615.7c11.4,6.6,20.7,22.6,20.6,35.7c0,10-5.4,15.4-13,14.6l-0.1,28.1c0,4.9-3.5,6.9-7.8,4.4
					c-4.3-2.5-7.8-8.5-7.8-13.4l0.1-28.1c-7.6-7.9-12.9-19.5-12.8-29.5C793.9,614.4,803.2,609.1,814.6,615.7z"/>
			</g>
		</g>
		<path fill="#E3AA82" d="M908.1,684.1c0,0-1.8,10.4-8,14.8c-6.2,4.4-25.7,10.8-29.3,10.4c-3.6-0.4,3.2-6.4,7.6-9.6
			c4.4-3.2,9.2-10.8,8.8-13.5c-0.4-2.8-12.3,0.4-15.5,0c-3.2-0.4-3.6-4.8,4-6.4c7.6-1.6,27.1-13.5,27.1-13.5S915,674.9,908.1,684.1z
			"/>
		<path fill="#F965A8" d="M993,500.2c0,0,13.2,8,17.2,20.7c4,12.7-8.8,65.3-11.2,72.9c-2.4,7.6-6.4,25.3-10,32.3s-32.7,37-77.3,60.1
			c0,0-11.9-3.6-11.7-21.1c0,0,51.5-38.5,62.7-47.8c0,0,6.8-45.8,10-63.7S983,512.5,993,500.2z"/>
		<path fill="#E3AA82" d="M920.8,416.9c0,0,0.3,32.6,8.7,53.2c1.1,2.7,3.7,4.6,6.6,4.8c2.8,0.2,6.2,0.2,8.3-0.4l0.3,10.5
			c0,0,22.4-1.3,32.9-12.8l-4.1-11.2c0,0,7.7-8.3,9.6-11.8c1.9-3.5,0-23.9,0-23.9l-32.9-23L920.8,416.9z"/>
		<path fill="#443127" d="M963.4,387.9L963.4,387.9c-11.2-3.6-22.8-3.3-30.3,2.5c-9.8,7.7-16.8,16.5-19.5,32.4
			c0.8,0.3,3.1,5,3.9,5.3c0,0,16.2-12.8,40-12.9c0,0,6.7,7.9,3.6,32.8c-2.1,16.9-9.5,35.1-13.9,45l0,0c1.5,0.8,3.2,1,4.9,0.5
			c11.5-3.5,31.1-13.4,39-39.7c2.4-7.9,3-15.6,2.6-22.4C983,414.8,965.7,388.6,963.4,387.9z"/>
		<polygon fill="#E3AA82" points="944.7,485 940.4,472.6 946.8,469.6 952.1,474.3 		"/>
		<path fill="#CEAB8A" d="M340,786.7l-2.5,2.2c0,0-1.4,44.3-1.9,77.7s-2.2,71.9-4.2,91.9c-2,20.1-5.7,72.9-5.7,84.2
			c0,0,9.4,7.4,22.4,7.4c13,0,25.4-9,25.4-9s-0.7-60.5,4.7-82.9c5.3-22.4,8.7-43.1,8.7-43.1s2,35.4,0,67.9
			c-2,32.4-1.3,90.6-1.3,90.6s6,10.4,22.7,8.7c16.7-1.7,23.7-7.4,23.7-7.4s0-35.4,3.3-68.5c3.3-33.1,18.1-159.5,12.4-189.9
			C447.7,816.4,398.2,773.7,340,786.7z"/>
		<path fill="#52507B" d="M369.6,584.9c0,0-8-2.6-16.5,2.8c-4,2.5-7.7,6.8-10.5,10.6c-3.6,4.8-5.5,10.7-5.7,16.7
			c-0.2,6.9-0.3,17.2,0.4,27c1.2,17,1.2,69,0.5,80.3c-0.7,11.3-0.2,57.9-2.1,64.5c0,0,18.7,22.2,49.4,32.6s66.7,2.7,66.7,2.7
			s2.2-83.1,1-98.2c-1.2-15.1,4.7-85.6-4-96.2c-8.7-10.6-29.9-21.7-39.3-26.6C400,596.2,389.9,585.3,369.6,584.9z"/>
		<path fill="#E3AA82" d="M436,539.3c0,0-0.2,49.4-11.3,59.7c0,0-6,1.5-13,0l-0.9,6.4c0,0-14.6,9.2-26.7,4.7c0,0-6.6-1.2-9.7-8
			l3.3-16.8l32.8-41.3C410.5,544.1,417.6,534.9,436,539.3z"/>
		<path fill="#3C3D42" d="M354.8,535.1c0,0-5.2,28.8,7.6,44.9c12.8,16.1,34.5,22.4,52.7,14.9c0,0-9.9-3.5-10.2-12.3
			c-0.2-8.7,8.5-15.4,16.1-10.2c0,0,1.4-12.8,0.9-18.7c0,0,11.6-5.7,16.1-14.4c0,0,4-9.7,0-20.8c-4-11.1-15.4-22.9-36.6-23.1
			C380,495.2,358.1,508.9,354.8,535.1z"/>
		<g>
			<g enable-background="new    ">
				<g>
					<polygon fill="#285199" points="652.9,805.7 624.7,789.3 624.5,732.2 652.7,748.6 					"/>
				</g>
				<g>
					<polygon fill="#285199" points="614.1,828 585.9,811.7 585.8,754.6 614,771 					"/>
				</g>
				<g>
					<path fill="#285199" d="M670.4,677.6c-2.6-1.5-6.2-1.3-10.2,1L483.6,780.5l28.2,16.4l176.5-101.9c4-2.3,7.6-2.5,10.2-1
						L670.4,677.6z"/>
					<path fill="#285199" d="M458.4,782.1l0.2,58.8l-24.8,14.3l-0.1-39.1c0-11.7,8.2-26.1,18.5-32l41.1-23.7c5.1-3,9.8-3.2,13.2-1.3
						l-28.2-16.4c-3.4-2-8-1.7-13.2,1.3l-41.1,23.7c-10.2,5.9-18.5,20.2-18.5,32l0.2,84.6c0,5.8,2.1,9.9,5.4,11.9l28.2,16.4
						c-3.3-1.9-5.4-6-5.4-11.9l-0.1-42.2l25.3,14.7l27.7-16l-0.2-58.8L458.4,782.1z"/>
				</g>
				<path fill="#4367C7" d="M688.4,694.9L511.8,796.9l-0.1-25.8c0-11.7-8.3-16.5-18.6-10.6l-41.1,23.7c-10.2,5.9-18.5,20.2-18.5,32
					l0.2,84.6c0,11.7,8.3,16.5,18.6,10.6l41.1-23.7c10.2-5.9,18.5-20.2,18.5-32l-0.1-25.8L614,771l0.2,57.1l27.6-15.9l-0.2-57.1
					l11.2-6.4l0.2,57.1l27.6-15.9l-0.2-57.1l8.2-4.7c7.9-4.6,14.3-15.7,14.3-24.8C702.8,694,696.3,690.4,688.4,694.9z M459,873.3
					l-0.2-58.8l27.7-16l0.2,58.8L459,873.3z"/>
			</g>
		</g>
		<path fill="#E3AA82" d="M550.6,761.1l5.1-2.7c0,0,10.7,5.3,18.9,12.7c8.3,7.4,8,17.1,2.9,25.7c-5.1,8.6-14,11.4-19.7,13.1
			c-5.7,1.7-12.6,2.9-11.1-2c1.4-4.9,5.1-6,5.7-10.9c0.6-4.9,2-8.7-6.7-14.6C536.9,776.6,542.6,762.3,550.6,761.1z"/>
		<path fill="#52507B" d="M447,632.3l1.7-4.7c0,0,15.1,28.1,27.4,53.1c12.3,25,18.7,38,28.8,45.8c10.2,7.8,58.6,33.8,58.6,33.8
			s4.3,6.6,0,15.6c-4.3,9-5.7,10.6-11.1,14.6c0,0-61.9-24.8-80.8-37.8c-18.9-13-41.3-55.5-46.5-67.1
			C419.9,674.1,424.6,630.7,447,632.3z"/>
	</g>
	<g>
		<g>
			<g enable-background="new    ">
				<g>
					<polygon fill="#FFFFFF" points="1065.4,275.4 1065.1,382.6 990.4,339.8 967.1,357.8 967.1,326.4 913.2,294.9 913.6,187.7 					
						"/>
				</g>
				<g>
					<polygon fill="#506292" points="1065.4,275.4 1074.3,270.2 1074,377.4 1065.1,382.6 					"/>
				</g>
				<g>
					<polygon fill="#506292" points="913.6,187.7 922.5,182.6 1074.3,270.2 1065.4,275.4 					"/>
				</g>
			</g>
		</g>
		<g>
			<g>
				<path fill="#506292" d="M949.1,251c4.3,2.5,7.9,8.6,7.8,13.6c0,5-3.6,7-7.9,4.5c-4.3-2.5-7.9-8.6-7.8-13.6
					C941.2,250.5,944.8,248.4,949.1,251z"/>
			</g>
			<g>
				<path fill="#506292" d="M975,265.9c4.3,2.5,7.9,8.6,7.8,13.6c0,5-3.6,7-7.9,4.5c-4.3-2.5-7.9-8.6-7.8-13.6
					C967.1,265.4,970.6,263.4,975,265.9z"/>
			</g>
			<g>
				<path fill="#506292" d="M1000.8,280.8c4.3,2.5,7.9,8.6,7.8,13.6c0,5-3.6,7-7.9,4.5c-4.3-2.5-7.9-8.6-7.8-13.6
					C992.9,280.3,996.5,278.3,1000.8,280.8z"/>
			</g>
			<g>
				<path fill="#506292" d="M1026.7,295.7c4.3,2.5,7.9,8.6,7.8,13.6c0,5-3.6,7-7.9,4.5c-4.3-2.5-7.9-8.6-7.8-13.6
					C1018.8,295.3,1022.3,293.2,1026.7,295.7z"/>
			</g>
		</g>
	</g>
	<g>
		<g>
			<polygon fill="#F2F2F2" points="526,1117.2 525.9,1118.1 610.3,1069.4 733,1140.8 738.9,1135.9 742.4,1135 742.4,1146.2 
				645.1,1202.4 513,1125.6 513,1114.8 			"/>
			<polygon fill="#FFFFFF" points="513,1114.8 645.1,1191.6 742.4,1135.4 610.3,1058.6 			"/>
			<polygon fill="#A9D6FF" points="634.3,1176.8 716.9,1129.1 722.9,1132.5 640.2,1180.2 			"/>
			<polygon fill="#A9D6FF" points="621.5,1169.4 704.2,1121.7 710.1,1125.1 627.5,1172.9 			"/>
			<polygon fill="#A9D6FF" points="608.8,1162 691.5,1114.3 697.4,1117.7 614.7,1165.5 			"/>
			<polygon fill="#A9D6FF" points="596.1,1154.6 678.8,1106.9 684.7,1110.3 602,1158.1 			"/>
			<polygon fill="#A9D6FF" points="583.4,1147.2 666.1,1099.5 672,1102.9 589.3,1150.7 			"/>
			<polygon fill="#A9D6FF" points="570.7,1139.8 653.3,1092.1 659.3,1095.5 576.6,1143.3 			"/>
			<polygon fill="#A9D6FF" points="557.9,1132.4 640.6,1084.7 646.5,1088.1 563.9,1135.9 			"/>
			<polygon fill="#A9D6FF" points="545.2,1125 627.9,1077.3 633.8,1080.8 551.1,1128.5 			"/>
			<polygon fill="#A9D6FF" points="538.4,1121.1 532.5,1117.7 615.2,1069.9 621.1,1073.4 			"/>
		</g>
		<g>
			<polygon fill="#F2F2F2" points="526,1100.2 525.9,1101.2 610.3,1052.5 733,1123.8 738.9,1118.9 742.4,1118 742.4,1129.2 
				645.1,1185.4 513,1108.6 513,1097.8 			"/>
			<polygon fill="#FFFFFF" points="513,1097.8 645.1,1174.6 742.4,1118.4 610.3,1041.7 			"/>
			<polygon fill="#A9D6FF" points="634.3,1159.9 716.9,1112.1 722.9,1115.6 640.2,1163.3 			"/>
			<polygon fill="#A9D6FF" points="621.5,1152.5 704.2,1104.7 710.1,1108.2 627.5,1155.9 			"/>
			<polygon fill="#A9D6FF" points="608.8,1145.1 691.5,1097.3 697.4,1100.8 614.7,1148.5 			"/>
			<polygon fill="#A9D6FF" points="596.1,1137.7 678.8,1089.9 684.7,1093.4 602,1141.1 			"/>
			<polygon fill="#A9D6FF" points="583.4,1130.3 666.1,1082.5 672,1086 589.3,1133.7 			"/>
			<polygon fill="#A9D6FF" points="570.7,1122.9 653.3,1075.2 659.3,1078.6 576.6,1126.3 			"/>
			<polygon fill="#A9D6FF" points="557.9,1115.5 640.6,1067.8 646.5,1071.2 563.9,1118.9 			"/>
			<polygon fill="#A9D6FF" points="545.2,1108.1 627.9,1060.4 633.8,1063.8 551.1,1111.5 			"/>
			<polygon fill="#A9D6FF" points="538.4,1104.1 532.5,1100.7 615.2,1053 621.1,1056.4 			"/>
		</g>
		<g>
			<polygon fill="#F2F2F2" points="526,1083.3 525.9,1084.2 610.3,1035.5 733,1106.9 738.9,1102 742.4,1101.1 742.4,1112.3 
				645.1,1168.5 513,1091.7 513,1080.9 			"/>
			<polygon fill="#FFFFFF" points="513,1080.9 645.1,1157.7 742.4,1101.5 610.3,1024.7 			"/>
			<polygon fill="#A9D6FF" points="634.3,1142.9 716.9,1095.2 722.9,1098.6 640.2,1146.3 			"/>
			<polygon fill="#A9D6FF" points="621.5,1135.5 704.2,1087.8 710.1,1091.2 627.5,1139 			"/>
			<polygon fill="#A9D6FF" points="608.8,1128.1 691.5,1080.4 697.4,1083.8 614.7,1131.6 			"/>
			<polygon fill="#A9D6FF" points="596.1,1120.7 678.8,1073 684.7,1076.4 602,1124.2 			"/>
			<polygon fill="#A9D6FF" points="583.4,1113.3 666.1,1065.6 672,1069 589.3,1116.8 			"/>
			<polygon fill="#A9D6FF" points="570.7,1105.9 653.3,1058.2 659.3,1061.6 576.6,1109.4 			"/>
			<polygon fill="#A9D6FF" points="557.9,1098.5 640.6,1050.8 646.5,1054.3 563.9,1102 			"/>
			<polygon fill="#A9D6FF" points="545.2,1091.2 627.9,1043.4 633.8,1046.9 551.1,1094.6 			"/>
			<polygon fill="#A9D6FF" points="538.4,1087.2 532.5,1083.8 615.2,1036 621.1,1039.5 			"/>
		</g>
		<g>
			<polygon fill="#F2F2F2" points="526,1066.3 525.9,1067.3 610.3,1018.6 733,1089.9 738.9,1085 742.4,1084.1 742.4,1095.3 
				645.1,1151.5 513,1074.7 513,1063.9 			"/>
			<polygon fill="#FFFFFF" points="513,1063.9 645.1,1140.7 742.4,1084.5 610.3,1007.8 			"/>
			<polygon fill="#A9D6FF" points="634.3,1126 716.9,1078.2 722.9,1081.7 640.2,1129.4 			"/>
			<polygon fill="#A9D6FF" points="621.5,1118.6 704.2,1070.8 710.1,1074.3 627.5,1122 			"/>
			<polygon fill="#A9D6FF" points="608.8,1111.2 691.5,1063.4 697.4,1066.9 614.7,1114.6 			"/>
			<polygon fill="#A9D6FF" points="596.1,1103.8 678.8,1056 684.7,1059.5 602,1107.2 			"/>
			<polygon fill="#A9D6FF" points="583.4,1096.4 666.1,1048.6 672,1052.1 589.3,1099.8 			"/>
			<polygon fill="#A9D6FF" points="570.7,1089 653.3,1041.3 659.3,1044.7 576.6,1092.4 			"/>
			<polygon fill="#A9D6FF" points="557.9,1081.6 640.6,1033.9 646.5,1037.3 563.9,1085 			"/>
			<polygon fill="#A9D6FF" points="545.2,1074.2 627.9,1026.5 633.8,1029.9 551.1,1077.6 			"/>
			<polygon fill="#A9D6FF" points="538.4,1070.3 532.5,1066.8 615.2,1019.1 621.1,1022.5 			"/>
		</g>
		<g>
			<polygon fill="#F2F2F2" points="526,1049.4 525.9,1050.3 610.3,1001.6 733,1073 738.9,1068.1 742.4,1067.2 742.4,1078.4 
				645.1,1134.6 513,1057.8 513,1047 			"/>
			<polygon fill="#FFFFFF" points="513,1047 645.1,1123.8 742.4,1067.6 610.3,990.8 			"/>
			<polygon fill="#A9D6FF" points="634.3,1109 716.9,1061.3 722.9,1064.7 640.2,1112.5 			"/>
			<polygon fill="#A9D6FF" points="621.5,1101.6 704.2,1053.9 710.1,1057.3 627.5,1105.1 			"/>
			<polygon fill="#A9D6FF" points="608.8,1094.2 691.5,1046.5 697.4,1049.9 614.7,1097.7 			"/>
			<polygon fill="#A9D6FF" points="596.1,1086.8 678.8,1039.1 684.7,1042.5 602,1090.3 			"/>
			<polygon fill="#A9D6FF" points="583.4,1079.4 666.1,1031.7 672,1035.1 589.3,1082.9 			"/>
			<polygon fill="#A9D6FF" points="570.7,1072 653.3,1024.3 659.3,1027.7 576.6,1075.5 			"/>
			<polygon fill="#A9D6FF" points="557.9,1064.6 640.6,1016.9 646.5,1020.4 563.9,1068.1 			"/>
			<polygon fill="#A9D6FF" points="545.2,1057.3 627.9,1009.5 633.8,1013 551.1,1060.7 			"/>
			<polygon fill="#A9D6FF" points="538.4,1053.3 532.5,1049.9 615.2,1002.1 621.1,1005.6 			"/>
		</g>
		<g>
			<polygon fill="#F2F2F2" points="526,1032.5 525.9,1033.4 610.3,984.7 733,1056 738.9,1051.1 742.4,1050.2 742.4,1061.4 
				645.1,1117.6 513,1040.8 513,1030 			"/>
			<polygon fill="#FFFFFF" points="513,1030 645.1,1106.8 742.4,1050.6 610.3,973.9 			"/>
			<polygon fill="#A9D6FF" points="634.3,1092.1 716.9,1044.3 722.9,1047.8 640.2,1095.5 			"/>
			<polygon fill="#A9D6FF" points="621.5,1084.7 704.2,1036.9 710.1,1040.4 627.5,1088.1 			"/>
			<polygon fill="#A9D6FF" points="608.8,1077.3 691.5,1029.5 697.4,1033 614.7,1080.7 			"/>
			<polygon fill="#A9D6FF" points="596.1,1069.9 678.8,1022.1 684.7,1025.6 602,1073.3 			"/>
			<polygon fill="#A9D6FF" points="583.4,1062.5 666.1,1014.8 672,1018.2 589.3,1065.9 			"/>
			<polygon fill="#A9D6FF" points="570.7,1055.1 653.3,1007.4 659.3,1010.8 576.6,1058.5 			"/>
			<polygon fill="#A9D6FF" points="557.9,1047.7 640.6,1000 646.5,1003.4 563.9,1051.1 			"/>
			<polygon fill="#A9D6FF" points="545.2,1040.3 627.9,992.6 633.8,996 551.1,1043.7 			"/>
			<polygon fill="#A9D6FF" points="538.4,1036.4 532.5,1032.9 615.2,985.2 621.1,988.6 			"/>
		</g>
	</g>
	<g>
		<g>
			<path fill="#313747" d="M654.1,1031.7c0.3,1.1,0.4,2.3,0.4,3.5c0,1.2-0.1,2.3-0.4,3.5l8.6,0l0-7H654.1z"/>
		</g>
		<g>
			<polygon fill="#232935" points="654,1038.7 654.1,1047.3 662.7,1047.3 662.6,1038.7 			"/>
		</g>
		<g>
			<polygon fill="#E54897" points="662.6,1040.5 662.7,1049 753.2,1049 753.2,1040.5 			"/>
		</g>
		<g>
			<polygon fill="#F965A8" points="662.7,1030 662.7,1031.7 662.6,1038.7 662.6,1040.5 753.2,1040.5 753.2,1030 			"/>
		</g>
		<path fill="#E54897" d="M609.7,1061.1c12.3,0,23.5-2.9,31.6-7.6c6.8-3.9,11.4-9,12.7-14.8c0.3-1.1,0.4-2.3,0.4-3.5
			c0,0,0-0.1,0-0.1l0,8.5c0,0,0,0.1,0,0.1c0,1.2-0.1,2.3-0.4,3.5c-1.4,5.7-6,10.9-12.7,14.8c-8.1,4.7-19.3,7.6-31.6,7.6
			c-24.6,0-44.5-11.6-44.4-25.8l0-8.5C565.2,1049.5,585.1,1061.1,609.7,1061.1z"/>
		<path fill="#DCF8FF" d="M584,1020.2c-6.7,3.8-10.8,9.1-10.8,15c0,5.9,4,11.2,10.6,15c6.6,3.8,15.8,6.2,25.9,6.2
			c10.1,0,19.3-2.4,25.9-6.2c6.7-3.8,10.8-9.1,10.8-15c0-5.9-4-11.2-10.6-15c-6.6-3.8-15.8-6.2-25.9-6.2
			C599.9,1014,590.7,1016.4,584,1020.2z"/>
		<path fill="#F965A8" d="M565.3,1035.2c-0.1,14.3,19.8,25.8,44.4,25.8c12.3,0,23.5-2.9,31.6-7.6c6.8-3.9,11.4-9,12.7-14.8
			c0.3-1.1,0.4-2.3,0.4-3.5c0-1.2-0.1-2.3-0.4-3.5c-2.9-12.6-21.5-22.3-44.1-22.3c-12.3,0-23.5,2.9-31.6,7.6
			C570.4,1021.6,565.3,1028.1,565.3,1035.2z M573.2,1035.2c0-5.9,4.2-11.2,10.8-15c6.7-3.8,15.8-6.2,25.9-6.2
			c10.1,0,19.3,2.4,25.9,6.2c6.6,3.8,10.7,9.1,10.6,15c0,5.9-4.2,11.2-10.8,15c-6.7,3.8-15.8,6.2-25.9,6.2
			c-10.1,0-19.3-2.4-25.9-6.2C577.3,1046.4,573.2,1041.1,573.2,1035.2z"/>
		<path fill="#FFFFFF" d="M608.5,1056.4c-6.6-0.1-12.8-1.3-18.1-3.2l50.6-29.2c3.3,3.1,5.2,6.6,5.4,10.5L608.5,1056.4z"/>
		<path fill="#FFFFFF" d="M620.7,1014.9c5.6,1,10.7,2.8,14.8,5.1l-52,30c-4-2.4-7-5.3-8.7-8.6L620.7,1014.9z"/>
	</g>
	<g enable-background="new    ">
		<g>
			<path fill="#FFFFFF" d="M853.6,878.3c12.7,7.3,12.8,19.3,0.1,26.6L817,926.2c-12.6,7.3-33.2,7.3-45.9,0l-37-21.3
				c-12.7-7.3-12.8-19.3-0.1-26.6l36.7-21.3c12.6-7.3,33.2-7.3,45.9,0L853.6,878.3z"/>
		</g>
		<path fill="#F2F2F2" d="M853.7,904.9L817,926.2c-12.6,7.3-33.2,7.3-45.9,0l-37-21.3c-6.4-3.7-9.6-8.6-9.6-13.4l-0.1,26.9
			c0,4.8,3.2,9.7,9.6,13.4l37,21.3c12.7,7.3,33.3,7.3,45.9,0l36.7-21.3c6.3-3.7,9.4-8.4,9.4-13.2l0.1-26.9
			C863.2,896.5,860,901.3,853.7,904.9z"/>
	</g>
	<g>
		<g>
			<polygon fill="#285199" points="833.8,858.9 828.2,862.2 828.2,878.7 833.7,875.5 			"/>
			<polygon fill="#285199" points="763.7,862.2 758.1,858.9 758,875.5 763.6,878.7 			"/>
			<path fill="#285199" d="M779.8,890.1c0-0.1,0-0.1,0-0.2c0-0.1,0-0.2,0-0.2c0-0.1,0-0.1,0-0.2c0-0.1,0-0.2,0.1-0.2
				c0-0.1,0-0.1,0.1-0.2c0-0.1,0-0.2,0.1-0.2c0-0.1,0.1-0.1,0.1-0.2c0-0.1,0.1-0.2,0.1-0.2c0-0.1,0.1-0.1,0.1-0.2
				c0-0.1,0.1-0.2,0.1-0.2c0-0.1,0.1-0.1,0.1-0.2c0.1-0.1,0.1-0.2,0.2-0.3c0-0.1,0.1-0.1,0.1-0.2c0.1-0.1,0.1-0.2,0.2-0.3
				c0,0,0.1-0.1,0.1-0.1c0.1-0.2,0.3-0.3,0.4-0.5c0,0,0.1-0.1,0.1-0.1c0.1-0.1,0.2-0.2,0.4-0.4c0.1-0.1,0.1-0.1,0.2-0.2
				c0.1-0.1,0.2-0.1,0.2-0.2c0.1-0.1,0.1-0.1,0.2-0.2c0.1-0.1,0.2-0.1,0.3-0.2c0.1-0.1,0.2-0.1,0.2-0.2c0.1-0.1,0.2-0.1,0.3-0.2
				c0.1-0.1,0.2-0.1,0.3-0.2c0.1-0.1,0.2-0.1,0.3-0.2c0.1-0.1,0.2-0.2,0.4-0.2c0.2-0.1,0.5-0.3,0.7-0.4c0.1,0,0.1-0.1,0.2-0.1
				c0.2-0.1,0.4-0.2,0.6-0.3c0.1,0,0.1-0.1,0.2-0.1c0.3-0.1,0.5-0.2,0.8-0.3c0,0,0.1,0,0.1-0.1c0.2-0.1,0.5-0.2,0.7-0.2
				c0.1,0,0.2-0.1,0.3-0.1c0.1,0,0.3-0.1,0.4-0.1c0.1,0,0.2-0.1,0.3-0.1c0.1,0,0.3-0.1,0.4-0.1c0.1,0,0.2-0.1,0.3-0.1
				c0.1,0,0.3-0.1,0.4-0.1c0.1,0,0.2-0.1,0.3-0.1c0.1,0,0.3-0.1,0.4-0.1c0.1,0,0.2,0,0.3-0.1c0.3-0.1,0.6-0.1,0.9-0.1
				c0,0,0.1,0,0.1,0c0.3,0,0.5-0.1,0.8-0.1c0.1,0,0.2,0,0.3,0c0.2,0,0.3,0,0.5,0c0.1,0,0.2,0,0.3,0c0.2,0,0.4,0,0.5,0
				c0.1,0,0.2,0,0.3,0c0.2,0,0.3,0,0.5,0c0.1,0,0.2,0,0.3,0c0.2,0,0.3,0,0.5,0c0.1,0,0.2,0,0.3,0c0.5,0,1,0,1.5,0.1c0,0,0,0,0,0
				c0.5,0,1,0.1,1.6,0.2c0,0,0.1,0,0.1,0c0.2,0,0.4,0.1,0.7,0.1c0.1,0,0.2,0,0.3,0.1c0.2,0,0.3,0.1,0.5,0.1c0.1,0,0.2,0,0.3,0.1
				c0.2,0,0.4,0.1,0.5,0.1c0.1,0,0.2,0.1,0.3,0.1c0.2,0,0.3,0.1,0.5,0.1c0.1,0,0.2,0.1,0.3,0.1c0.3,0.1,0.5,0.2,0.8,0.2
				c0,0,0.1,0,0.1,0c0.3,0.1,0.6,0.2,0.9,0.3c0.1,0,0.1,0,0.2,0.1c0.4,0.1,0.7,0.3,1.1,0.5c0,0,0.1,0,0.1,0.1
				c0.4,0.2,0.7,0.4,1.1,0.6c3.2,1.8,4.8,4.3,4.8,6.7l0-16.6c0-2.4-1.6-4.8-4.8-6.7c-0.3-0.2-0.7-0.4-1.1-0.6c0,0-0.1,0-0.1-0.1
				c-0.3-0.2-0.7-0.3-1.1-0.5c0,0-0.1,0-0.1,0c0,0-0.1,0-0.1,0c-0.3-0.1-0.6-0.2-0.9-0.3c0,0-0.1,0-0.1,0c-0.3-0.1-0.5-0.2-0.8-0.2
				c0,0-0.1,0-0.1,0c0,0-0.1,0-0.1,0c-0.2,0-0.3-0.1-0.5-0.1c-0.1,0-0.2-0.1-0.3-0.1c-0.2,0-0.4-0.1-0.5-0.1c-0.1,0-0.1,0-0.2,0
				c0,0,0,0-0.1,0c-0.2,0-0.3-0.1-0.5-0.1c-0.1,0-0.2,0-0.3-0.1c-0.2,0-0.4-0.1-0.7-0.1c0,0-0.1,0-0.1,0c0,0,0,0,0,0
				c-0.5-0.1-1-0.1-1.6-0.2c0,0,0,0,0,0c0,0,0,0,0,0c-0.5,0-1-0.1-1.5-0.1c0,0,0,0,0,0c-0.1,0-0.2,0-0.3,0c-0.2,0-0.3,0-0.5,0
				c-0.1,0-0.2,0-0.3,0c-0.2,0-0.3,0-0.5,0c0,0-0.1,0-0.1,0c-0.1,0-0.1,0-0.2,0c-0.2,0-0.4,0-0.5,0c-0.1,0-0.2,0-0.3,0
				c-0.2,0-0.3,0-0.5,0c-0.1,0-0.1,0-0.2,0c0,0-0.1,0-0.1,0c-0.3,0-0.5,0.1-0.8,0.1c0,0-0.1,0-0.1,0c-0.3,0-0.6,0.1-0.9,0.1
				c0,0-0.1,0-0.1,0c-0.1,0-0.2,0-0.2,0c-0.1,0-0.3,0.1-0.4,0.1c-0.1,0-0.2,0-0.3,0.1c-0.1,0-0.3,0.1-0.4,0.1
				c-0.1,0-0.2,0.1-0.3,0.1c-0.1,0-0.3,0.1-0.4,0.1c-0.1,0-0.2,0.1-0.3,0.1c-0.1,0-0.3,0.1-0.4,0.1c-0.1,0-0.1,0-0.2,0.1
				c0,0-0.1,0-0.1,0c-0.1,0-0.3,0.1-0.4,0.1l0-13.6l0-4.6l0,16.6l0,1.6c-0.1,0-0.2,0.1-0.3,0.1c0,0-0.1,0-0.1,0.1
				c-0.3,0.1-0.5,0.2-0.8,0.3c-0.1,0-0.1,0.1-0.2,0.1c-0.2,0.1-0.4,0.2-0.6,0.3c-0.1,0-0.1,0.1-0.2,0.1c-0.3,0.1-0.5,0.3-0.7,0.4
				c-0.1,0-0.1,0.1-0.2,0.1c-0.1,0-0.1,0.1-0.2,0.1c-0.1,0.1-0.2,0.1-0.3,0.2c-0.1,0.1-0.2,0.1-0.3,0.2c-0.1,0.1-0.2,0.1-0.3,0.2
				c-0.1,0.1-0.2,0.1-0.2,0.2c-0.1,0.1-0.2,0.1-0.3,0.2c-0.1,0.1-0.1,0.1-0.2,0.2c-0.1,0.1-0.2,0.1-0.2,0.2c0,0-0.1,0.1-0.1,0.1
				c0,0-0.1,0.1-0.1,0.1c-0.1,0.1-0.2,0.2-0.4,0.4c0,0-0.1,0.1-0.1,0.1c-0.1,0.2-0.3,0.3-0.4,0.5c0,0,0,0,0,0c0,0-0.1,0.1-0.1,0.1
				c-0.1,0.1-0.2,0.2-0.2,0.3c0,0.1-0.1,0.1-0.1,0.2c-0.1,0.1-0.1,0.2-0.2,0.3c0,0,0,0.1,0,0.1c0,0,0,0.1-0.1,0.1
				c0,0.1-0.1,0.2-0.1,0.2c0,0.1-0.1,0.1-0.1,0.2c0,0.1-0.1,0.2-0.1,0.2c0,0,0,0.1,0,0.1c0,0,0,0.1,0,0.1c0,0.1-0.1,0.2-0.1,0.2
				c0,0.1,0,0.1-0.1,0.2c0,0.1,0,0.2-0.1,0.2c0,0,0,0.1,0,0.1c0,0,0,0.1,0,0.1c0,0.1,0,0.2,0,0.2c0,0.1,0,0.1,0,0.2
				c0,0.1,0,0.2,0,0.2c0,0,0,0.1,0,0.1c0,0,0,0.1,0,0.1l0,16.6c0-0.1,0-0.2,0-0.3C779.8,890.2,779.8,890.1,779.8,890.1z"/>
			<path fill="#285199" d="M833.4,878.9c-0.1,0.3-0.2,0.6-0.3,0.8c0,0,0,0.1-0.1,0.1c-0.1,0.3-0.3,0.5-0.4,0.8
				c0,0.1-0.1,0.1-0.1,0.2c-0.1,0.3-0.3,0.5-0.5,0.8c0,0,0,0,0,0c-0.2,0.3-0.3,0.5-0.5,0.8c0,0.1-0.1,0.1-0.1,0.2
				c-0.2,0.3-0.4,0.5-0.6,0.8c0,0.1-0.1,0.1-0.1,0.2c-0.2,0.2-0.3,0.4-0.5,0.6c-0.1,0.1-0.1,0.2-0.2,0.2c-0.2,0.2-0.4,0.4-0.6,0.6
				c-0.1,0.1-0.1,0.1-0.2,0.2c-0.3,0.3-0.5,0.5-0.8,0.8l0,6.5l-6,3.5l-5.6-3.2c-0.6,0.2-1.2,0.4-1.8,0.6c-0.2,0.1-0.4,0.1-0.6,0.2
				c-0.3,0.1-0.7,0.2-1,0.3c-0.2,0.1-0.4,0.1-0.6,0.2c-0.3,0.1-0.7,0.2-1,0.3c-0.2,0.1-0.4,0.1-0.6,0.2c-0.4,0.1-0.8,0.2-1.2,0.3
				c-0.2,0-0.3,0.1-0.5,0.1c-0.6,0.1-1.1,0.2-1.7,0.3c-0.3,0.1-0.7,0.1-1,0.2c-0.2,0-0.3,0.1-0.5,0.1c-0.5,0.1-1.1,0.2-1.6,0.2
				l0,4.6h-16.5l0-4.6c-0.4-0.1-0.8-0.1-1.2-0.2c-0.4-0.1-0.8-0.1-1.1-0.2c-0.2,0-0.4-0.1-0.6-0.1c-0.4-0.1-0.9-0.2-1.3-0.3
				c-0.1,0-0.3-0.1-0.4-0.1c-0.6-0.1-1.2-0.3-1.8-0.4c-0.2,0-0.3-0.1-0.5-0.1c-0.4-0.1-0.9-0.2-1.3-0.4c-0.2-0.1-0.4-0.1-0.6-0.2
				c-0.4-0.1-0.8-0.2-1.2-0.4c-0.2-0.1-0.4-0.1-0.5-0.2c-0.6-0.2-1.1-0.4-1.7-0.6L770,896l-6.2-3.6l0-6.5c-1.8-1.7-3.3-3.4-4.3-5.3
				c-0.3-0.6-0.6-1.2-0.9-1.8l0,0l-7.9,0l-0.1-9.6l0,16.6l0.1,9.6l7.5,0l0,10.4l11.7,6.8l5.6-3.2c0.5,0.2,1.1,0.4,1.7,0.6
				c0.2,0.1,0.4,0.1,0.5,0.2c0.4,0.1,0.8,0.2,1.2,0.4c0.1,0,0.2,0.1,0.3,0.1c0.1,0,0.2,0.1,0.3,0.1c0.4,0.1,0.9,0.2,1.3,0.4
				c0.2,0,0.3,0.1,0.5,0.1c0.6,0.1,1.2,0.3,1.8,0.4c0,0,0,0,0.1,0c0.1,0,0.2,0,0.4,0.1c0.4,0.1,0.9,0.2,1.3,0.3
				c0.2,0,0.4,0.1,0.6,0.1c0.4,0.1,0.8,0.1,1.1,0.2c0.1,0,0.2,0,0.3,0c0.3,0,0.6,0.1,0.9,0.1l0,4.6l16.6,0l0-4.6
				c0.5-0.1,1-0.1,1.5-0.2c0.2,0,0.3-0.1,0.5-0.1c0.3-0.1,0.7-0.1,1-0.2c0,0,0,0,0,0c0.6-0.1,1.1-0.2,1.7-0.3c0.2,0,0.3-0.1,0.5-0.1
				c0.4-0.1,0.8-0.2,1.2-0.3c0.2-0.1,0.4-0.1,0.6-0.2c0.4-0.1,0.7-0.2,1-0.3c0.2-0.1,0.4-0.1,0.6-0.2c0.3-0.1,0.7-0.2,1-0.3
				c0.1,0,0.2-0.1,0.4-0.1c0.1,0,0.1-0.1,0.2-0.1c0.6-0.2,1.2-0.4,1.8-0.6l5.6,3.2l11.7-6.8l0-10.4l7.3,0l0-16.6L833.4,878.9z"/>
		</g>
		<path fill="#4367C7" d="M833.4,878.9l7.9,0l-0.1-9.6l-7.9,0c-1-2.5-2.7-4.9-5.1-7.1l5.6-3.2l-11.7-6.8l-5.6,3.2
			c-3.8-1.4-8-2.4-12.3-2.9l0-4.6h-16.6l0,4.6c-4.3,0.5-8.4,1.5-12.3,2.9l-5.6-3.2l-11.7,6.8l5.6,3.2c-2.4,2.2-4.1,4.6-5,7.1l-7.9,0
			l0.1,9.6l7.9,0c1,2.5,2.7,4.9,5.1,7.1l-5.6,3.2L770,896l5.6-3.2c3.8,1.4,8,2.4,12.3,2.9l0,4.6h16.6l0-4.6
			c4.3-0.5,8.4-1.5,12.3-2.9l5.6,3.2l11.7-6.8l-5.6-3.2C830.8,883.8,832.5,881.3,833.4,878.9z M807.5,880.7
			c-6.3,3.7-16.5,3.7-22.9,0c-6.3-3.7-6.4-9.6-0.1-13.2c6.3-3.7,16.5-3.7,22.9,0C813.7,871.1,813.8,877,807.5,880.7z"/>
	</g>
	<g>
		<g>
			<polygon fill="#285199" points="912.9,952.7 909,955 909,966.7 912.9,964.4 			"/>
			<polygon fill="#285199" points="863.5,955 859.6,952.7 859.5,964.4 863.5,966.7 			"/>
			<path fill="#285199" d="M874.9,974.6c0-0.1,0-0.1,0-0.2c0-0.1,0-0.1,0-0.2c0-0.1,0-0.1,0-0.2c0-0.1,0-0.1,0-0.2
				c0-0.1,0-0.1,0-0.2c0-0.1,0-0.1,0.1-0.2c0,0,0-0.1,0.1-0.1c0-0.1,0-0.1,0.1-0.2c0,0,0-0.1,0.1-0.1c0-0.1,0.1-0.1,0.1-0.2
				c0,0,0.1-0.1,0.1-0.1c0-0.1,0.1-0.1,0.1-0.2c0,0,0.1-0.1,0.1-0.1c0.1-0.1,0.1-0.1,0.2-0.2c0,0,0-0.1,0.1-0.1
				c0.1-0.1,0.2-0.2,0.3-0.3c0,0,0.1-0.1,0.1-0.1c0.1-0.1,0.2-0.2,0.3-0.3c0,0,0.1-0.1,0.1-0.1c0.1,0,0.1-0.1,0.2-0.1
				c0.1,0,0.1-0.1,0.2-0.1c0.1,0,0.1-0.1,0.2-0.1c0.1,0,0.1-0.1,0.2-0.1c0.1,0,0.1-0.1,0.2-0.1c0.1,0,0.1-0.1,0.2-0.1
				c0.1,0,0.1-0.1,0.2-0.1c0.1-0.1,0.2-0.1,0.3-0.2c0.2-0.1,0.3-0.2,0.5-0.3c0.1,0,0.1-0.1,0.2-0.1c0.1-0.1,0.3-0.1,0.4-0.2
				c0,0,0.1,0,0.1-0.1c0.2-0.1,0.4-0.2,0.6-0.2c0,0,0.1,0,0.1,0c0.2-0.1,0.3-0.1,0.5-0.2c0.1,0,0.1,0,0.2-0.1c0.1,0,0.2-0.1,0.3-0.1
				c0.1,0,0.2,0,0.2-0.1c0.1,0,0.2-0.1,0.3-0.1c0.1,0,0.2,0,0.2-0.1c0.1,0,0.2,0,0.3-0.1c0.1,0,0.2,0,0.2-0.1c0.1,0,0.2,0,0.3-0.1
				c0.1,0,0.2,0,0.2,0c0.2,0,0.4-0.1,0.6-0.1c0,0,0.1,0,0.1,0c0.2,0,0.4,0,0.6-0.1c0.1,0,0.1,0,0.2,0c0.1,0,0.2,0,0.4,0
				c0.1,0,0.2,0,0.2,0c0.1,0,0.3,0,0.4,0c0.1,0,0.1,0,0.2,0c0.1,0,0.2,0,0.3,0c0.1,0,0.2,0,0.2,0c0.1,0,0.2,0,0.4,0
				c0.1,0,0.1,0,0.2,0c0.4,0,0.7,0,1.1,0.1c0,0,0,0,0,0c0.4,0,0.7,0.1,1.1,0.1c0,0,0.1,0,0.1,0c0.2,0,0.3,0,0.5,0.1
				c0.1,0,0.1,0,0.2,0c0.1,0,0.2,0,0.4,0.1c0.1,0,0.1,0,0.2,0c0.1,0,0.3,0.1,0.4,0.1c0.1,0,0.1,0,0.2,0.1c0.1,0,0.2,0.1,0.3,0.1
				c0.1,0,0.1,0,0.2,0.1c0.2,0.1,0.4,0.1,0.5,0.2c0,0,0.1,0,0.1,0c0.2,0.1,0.4,0.1,0.6,0.2c0,0,0.1,0,0.1,0c0.3,0.1,0.5,0.2,0.8,0.3
				c0,0,0,0,0.1,0c0.3,0.1,0.5,0.3,0.7,0.4c2.2,1.3,3.4,3,3.4,4.7l0-11.7c0-1.7-1.1-3.4-3.4-4.7c-0.2-0.1-0.5-0.3-0.7-0.4
				c0,0,0,0-0.1,0c-0.2-0.1-0.5-0.2-0.8-0.3c0,0,0,0-0.1,0c0,0,0,0-0.1,0c-0.2-0.1-0.4-0.2-0.6-0.2c0,0-0.1,0-0.1,0
				c-0.2-0.1-0.4-0.1-0.5-0.2c0,0-0.1,0-0.1,0c0,0-0.1,0-0.1,0c-0.1,0-0.2-0.1-0.3-0.1c-0.1,0-0.1,0-0.2-0.1c-0.1,0-0.3-0.1-0.4-0.1
				c0,0-0.1,0-0.1,0c0,0,0,0,0,0c-0.1,0-0.2,0-0.4-0.1c-0.1,0-0.1,0-0.2,0c-0.2,0-0.3,0-0.5-0.1c0,0-0.1,0-0.1,0c0,0,0,0,0,0
				c-0.4-0.1-0.7-0.1-1.1-0.1c0,0,0,0,0,0c0,0,0,0,0,0c-0.4,0-0.7,0-1.1-0.1c0,0,0,0,0,0c-0.1,0-0.1,0-0.2,0c-0.1,0-0.2,0-0.4,0
				c-0.1,0-0.2,0-0.2,0c-0.1,0-0.2,0-0.3,0c0,0,0,0-0.1,0c-0.1,0-0.1,0-0.2,0c-0.1,0-0.3,0-0.4,0c-0.1,0-0.2,0-0.2,0
				c-0.1,0-0.2,0-0.4,0c0,0-0.1,0-0.1,0c0,0-0.1,0-0.1,0c-0.2,0-0.4,0-0.6,0.1c0,0-0.1,0-0.1,0c-0.2,0-0.4,0.1-0.6,0.1
				c0,0,0,0-0.1,0c-0.1,0-0.1,0-0.2,0c-0.1,0-0.2,0-0.3,0.1c-0.1,0-0.2,0-0.2,0.1c-0.1,0-0.2,0-0.3,0.1c-0.1,0-0.2,0-0.2,0.1
				c-0.1,0-0.2,0-0.3,0.1c-0.1,0-0.2,0-0.2,0.1c-0.1,0-0.2,0.1-0.3,0.1c0,0-0.1,0-0.1,0c0,0-0.1,0-0.1,0c-0.1,0-0.2,0.1-0.3,0.1
				l0-9.6l0-3.2l0,11.7l0,1.2c-0.1,0-0.1,0-0.2,0.1c0,0-0.1,0-0.1,0c-0.2,0.1-0.4,0.2-0.6,0.2c0,0-0.1,0-0.1,0.1
				c-0.1,0.1-0.3,0.1-0.4,0.2c-0.1,0-0.1,0.1-0.2,0.1c-0.2,0.1-0.4,0.2-0.5,0.3c0,0-0.1,0.1-0.1,0.1c0,0-0.1,0.1-0.1,0.1
				c-0.1,0-0.1,0.1-0.2,0.1c-0.1,0-0.1,0.1-0.2,0.1c-0.1,0-0.1,0.1-0.2,0.1c-0.1,0-0.1,0.1-0.2,0.1c-0.1,0-0.1,0.1-0.2,0.1
				c-0.1,0-0.1,0.1-0.2,0.1c-0.1,0-0.1,0.1-0.2,0.1c0,0,0,0-0.1,0.1c0,0,0,0-0.1,0.1c-0.1,0.1-0.2,0.2-0.3,0.3c0,0-0.1,0.1-0.1,0.1
				c-0.1,0.1-0.2,0.2-0.3,0.3c0,0,0,0,0,0c0,0,0,0.1-0.1,0.1c-0.1,0.1-0.1,0.1-0.2,0.2c0,0-0.1,0.1-0.1,0.1c0,0.1-0.1,0.1-0.1,0.2
				c0,0,0,0,0,0.1c0,0,0,0.1,0,0.1c0,0.1-0.1,0.1-0.1,0.2c0,0,0,0.1-0.1,0.1c0,0.1,0,0.1-0.1,0.2c0,0,0,0.1,0,0.1c0,0,0,0,0,0.1
				c0,0.1,0,0.1-0.1,0.2c0,0.1,0,0.1,0,0.2c0,0.1,0,0.1,0,0.2c0,0,0,0.1,0,0.1c0,0,0,0,0,0.1c0,0.1,0,0.1,0,0.2c0,0,0,0.1,0,0.1
				c0,0.1,0,0.1,0,0.2c0,0,0,0.1,0,0.1c0,0,0,0.1,0,0.1l0,11.7c0-0.1,0-0.1,0-0.2C874.9,974.8,874.9,974.7,874.9,974.6z"/>
			<path fill="#285199" d="M912.6,966.8c-0.1,0.2-0.2,0.4-0.2,0.6c0,0,0,0.1,0,0.1c-0.1,0.2-0.2,0.4-0.3,0.6c0,0,0,0.1-0.1,0.1
				c-0.1,0.2-0.2,0.4-0.3,0.6c0,0,0,0,0,0c-0.1,0.2-0.2,0.4-0.4,0.5c0,0-0.1,0.1-0.1,0.1c-0.1,0.2-0.3,0.4-0.4,0.5
				c0,0-0.1,0.1-0.1,0.1c-0.1,0.1-0.2,0.3-0.4,0.4c0,0.1-0.1,0.1-0.1,0.2c-0.1,0.1-0.3,0.3-0.4,0.4c0,0-0.1,0.1-0.1,0.1
				c-0.2,0.2-0.4,0.4-0.6,0.6l0,4.6l-4.3,2.5l-4-2.3c-0.4,0.2-0.9,0.3-1.3,0.4c-0.1,0-0.3,0.1-0.4,0.1c-0.2,0.1-0.5,0.1-0.7,0.2
				c-0.2,0-0.3,0.1-0.5,0.1c-0.2,0.1-0.5,0.1-0.7,0.2c-0.1,0-0.3,0.1-0.4,0.1c-0.3,0.1-0.6,0.1-0.9,0.2c-0.1,0-0.2,0.1-0.3,0.1
				c-0.4,0.1-0.8,0.2-1.2,0.2c-0.2,0-0.5,0.1-0.7,0.1c-0.1,0-0.2,0-0.4,0.1c-0.4,0.1-0.7,0.1-1.1,0.2l0,3.2h-11.6l0-3.2
				c-0.3,0-0.6-0.1-0.8-0.1c-0.3,0-0.5-0.1-0.8-0.1c-0.1,0-0.3,0-0.4-0.1c-0.3-0.1-0.6-0.1-0.9-0.2c-0.1,0-0.2,0-0.3-0.1
				c-0.4-0.1-0.9-0.2-1.3-0.3c-0.1,0-0.2-0.1-0.3-0.1c-0.3-0.1-0.6-0.2-0.9-0.2c-0.1,0-0.3-0.1-0.4-0.1c-0.3-0.1-0.6-0.2-0.8-0.3
				c-0.1,0-0.2-0.1-0.4-0.1c-0.4-0.1-0.8-0.3-1.2-0.4l-3.9,2.3l-4.4-2.5l0-4.5c-1.3-1.2-2.3-2.4-3-3.7c-0.2-0.4-0.4-0.9-0.6-1.3l0,0
				l-5.6,0l0-6.8l0,11.7l0,6.8l5.3,0l0,7.3l8.3,4.8l3.9-2.3c0.4,0.1,0.8,0.3,1.2,0.4c0.1,0,0.2,0.1,0.4,0.1c0.3,0.1,0.6,0.2,0.8,0.3
				c0.1,0,0.1,0,0.2,0.1c0.1,0,0.1,0,0.2,0.1c0.3,0.1,0.6,0.2,0.9,0.2c0.1,0,0.2,0.1,0.3,0.1c0.4,0.1,0.9,0.2,1.3,0.3c0,0,0,0,0,0
				c0.1,0,0.2,0,0.2,0c0.3,0.1,0.6,0.1,0.9,0.2c0.1,0,0.3,0,0.4,0.1c0.3,0,0.5,0.1,0.8,0.1c0.1,0,0.1,0,0.2,0c0.2,0,0.4,0.1,0.6,0.1
				l0,3.2l11.7,0l0-3.2c0.4,0,0.7-0.1,1.1-0.2c0.1,0,0.2,0,0.4-0.1c0.2,0,0.5-0.1,0.7-0.1c0,0,0,0,0,0c0.4-0.1,0.8-0.2,1.2-0.2
				c0.1,0,0.2,0,0.3-0.1c0.3-0.1,0.6-0.1,0.9-0.2c0.1,0,0.3-0.1,0.4-0.1c0.2-0.1,0.5-0.1,0.7-0.2c0.2,0,0.3-0.1,0.5-0.1
				c0.2-0.1,0.5-0.1,0.7-0.2c0.1,0,0.2-0.1,0.3-0.1c0.1,0,0.1,0,0.2-0.1c0.4-0.1,0.9-0.3,1.3-0.4l4,2.3l8.2-4.8l0-7.3l5.2,0l0-11.7
				L912.6,966.8z"/>
		</g>
		<path fill="#4367C7" d="M912.6,966.8l5.6,0l0-6.8l-5.6,0c-0.7-1.8-1.9-3.4-3.6-5l3.9-2.3l-8.3-4.8l-3.9,2.3
			c-2.7-1-5.6-1.7-8.7-2.1l0-3.2h-11.7l0,3.2c-3,0.4-5.9,1.1-8.6,2.1l-4-2.3l-8.2,4.8l4,2.3c-1.7,1.6-2.9,3.3-3.6,5l-5.6,0l0,6.8
			l5.6,0c0.7,1.8,1.9,3.5,3.6,5l-3.9,2.3l8.3,4.8l3.9-2.3c2.7,1,5.6,1.7,8.7,2.1l0,3.2h11.7l0-3.2c3-0.4,6-1.1,8.6-2.1l4,2.3
			l8.2-4.8l-4-2.3C910.8,970.2,912,968.5,912.6,966.8z M894.4,968c-4.4,2.6-11.6,2.6-16.1,0c-4.5-2.6-4.5-6.8-0.1-9.3
			c4.4-2.6,11.6-2.6,16.1,0C898.8,961.3,898.8,965.5,894.4,968z"/>
	</g>
</g>
</svg>
